<svg width="3300" height="1014" xmlns="http://www.w3.org/2000/svg" xmlns:xlink="http://www.w3.org/1999/xlink" overflow="hidden"><defs><clipPath id="clip0"><rect x="550" y="405" width="3300" height="1014"/></clipPath></defs><g clip-path="url(#clip0)" transform="translate(-550 -405)"><text fill="#C00000" font-family="Garamond,Garamond_MSFontService,sans-serif" font-weight="400" font-size="275" transform="translate(1131.8 879)">Владимир и Юлия <tspan font-size="275" x="175.037" y="297">07</tspan></text><path d="M91.98-193.762C80.4321-187.944 71.6146-180.625 65.5273-171.808 59.4401-162.99 55.7251-153.278 54.3823-142.67 53.0395-132.062 53.7557-121.185 56.5308-110.04 59.3058-98.8952 63.737-88.0412 69.8242-77.478 75.9115-66.9149 83.2967-57.2917 91.98-48.6084 97.2616-43.3268 103.528-37.2172 110.779-30.2795 118.03-23.3419 125.661-16.158 133.673-8.72803 141.685-1.29801 149.563 5.84106 157.306 12.6892 165.049 19.5374 172.099 25.4679 178.455 30.481 181.498 32.9875 184.989 34.2855 188.928 34.375 192.867 34.4645 196.403 33.3008 199.536 30.8838 206.429 25.6917 213.747 19.6716 221.49 12.8235 229.234 5.97534 237.022-1.16374 244.855-8.59375 252.688-16.0238 260.118-23.2076 267.145-30.1453 274.172-37.0829 280.326-43.2373 285.608-48.6084 294.291-57.2917 301.699-66.9149 307.831-77.478 313.963-88.0412 318.394-98.8952 321.124-110.04 323.855-121.185 324.571-132.062 323.273-142.67 321.975-153.278 318.282-162.99 312.195-171.808 306.108-180.625 297.245-187.944 285.608-193.762 274.329-199.402 263.631-202.266 253.516-202.356 243.4-202.445 234.135-200.767 225.72-197.321 217.305-193.874 209.965-189.6 203.699-184.497 197.432-179.395 192.464-174.426 188.794-169.592 185.213-174.426 180.267-179.395 173.956-184.497 167.645-189.6 160.282-193.874 151.868-197.321 143.453-200.767 134.21-202.445 124.139-202.356 114.069-202.266 103.349-199.402 91.98-193.762Z" fill="#F8312F" transform="translate(1564.65 1176)"/><path d="M188.794-169.592C192.375-174.247 197.186-179.104 203.229-184.161 209.271-189.219 216.366-193.471 224.512-196.918 232.658-200.364 241.587-202.177 251.3-202.356 261.013-202.535 271.33-200.163 282.251-195.239 269.629-196.672 258.238-195.843 248.077-192.755 237.917-189.667 228.965-185.236 221.222-179.462 213.479-173.688 206.921-167.287 201.55-160.26 196.179-153.233 191.927-146.497 188.794-140.051Z" fill="#CA0B4A" transform="translate(1564.65 1176)"/><path d="M149.585-198.193C144.84-197.746 139.984-196.873 135.016-195.575 130.048-194.277 124.967-192.509 119.775-190.271 106.974-184.542 97.2168-177.313 90.5029-168.585 83.789-159.857 79.6936-150.301 78.2165-139.917 76.7395-129.533 77.5228-118.835 80.5664-107.825 83.61-96.8139 88.4888-86.1165 95.2026-75.7324 101.916-65.3483 110.107-55.8594 119.775-47.2656 124.967-42.6107 131.144-37.2172 138.306-31.0852 145.467-24.9532 153.031-18.5527 160.999-11.8835 168.966-5.21444 176.933 1.29801 184.9 7.65381 192.867 14.0096 200.297 19.7835 207.19 24.9756 204.415 27.2135 201.864 29.1829 199.536 30.8838 196.403 33.3008 192.867 34.4645 188.928 34.375 184.989 34.2855 181.498 32.9875 178.455 30.481 172.099 25.4679 165.049 19.5374 157.306 12.6892 149.563 5.84106 141.685-1.29801 133.673-8.72803 125.661-16.158 118.03-23.3419 110.779-30.2795 103.528-37.2172 97.2616-43.3268 91.98-48.6084 83.2967-57.2917 75.9115-66.9149 69.8242-77.478 63.737-88.0412 59.3058-98.8952 56.5308-110.04 53.7557-121.185 53.0395-132.062 54.3823-142.67 55.7251-153.278 59.4401-162.99 65.5273-171.808 71.6146-180.625 80.4321-187.944 91.98-193.762 102.812-199.133 113.084-201.931 122.797-202.155 132.509-202.378 141.439-201.058 149.585-198.193Z" fill="#CA0B4A" transform="translate(1564.65 1176)"/><path d="M284.936-116.15C289.233-123.58 292.053-130.943 293.396-138.239 294.739-145.534 294.649-152.024 293.127-157.709 291.606-163.393 288.651-167.489 284.265-169.995 279.968-172.502 274.978-172.994 269.293-171.472 263.609-169.95 257.947-166.772 252.307-161.938 246.667-157.104 241.699-151.017 237.402-143.677 233.195-136.247 230.397-128.884 229.01-121.588 227.622-114.292 227.69-107.802 229.211-102.118 230.733-96.4335 233.687-92.338 238.074-89.8315 242.46-87.325 247.495-86.8327 253.18-88.3545 258.864-89.8763 264.526-93.0542 270.166-97.8882 275.806-102.722 280.729-108.809 284.936-116.15Z" fill="#F37366" transform="translate(1564.65 1176)"/><text fill="#C00000" font-family="Garamond,Garamond_MSFontService,sans-serif" font-weight="400" font-size="275" transform="translate(1942.2 1176)">08</text><path d="M91.98-193.762C80.4321-187.944 71.6146-180.625 65.5273-171.808 59.4401-162.99 55.7251-153.278 54.3823-142.67 53.0395-132.062 53.7557-121.185 56.5308-110.04 59.3058-98.8952 63.737-88.0412 69.8242-77.478 75.9115-66.9149 83.2967-57.2917 91.98-48.6084 97.2616-43.3268 103.528-37.2172 110.779-30.2795 118.03-23.3419 125.661-16.158 133.673-8.72803 141.685-1.29801 149.563 5.84106 157.306 12.6892 165.049 19.5374 172.099 25.4679 178.455 30.481 181.498 32.9875 184.989 34.2855 188.928 34.375 192.867 34.4645 196.403 33.3008 199.536 30.8838 206.429 25.6917 213.747 19.6716 221.49 12.8235 229.234 5.97534 237.022-1.16374 244.855-8.59375 252.688-16.0238 260.118-23.2076 267.145-30.1453 274.172-37.0829 280.326-43.2373 285.608-48.6084 294.291-57.2917 301.699-66.9149 307.831-77.478 313.963-88.0412 318.394-98.8952 321.124-110.04 323.855-121.185 324.571-132.062 323.273-142.67 321.975-153.278 318.282-162.99 312.195-171.808 306.108-180.625 297.245-187.944 285.608-193.762 274.329-199.402 263.631-202.266 253.516-202.356 243.4-202.445 234.135-200.767 225.72-197.321 217.305-193.874 209.965-189.6 203.699-184.497 197.432-179.395 192.464-174.426 188.794-169.592 185.213-174.426 180.267-179.395 173.956-184.497 167.645-189.6 160.282-193.874 151.868-197.321 143.453-200.767 134.21-202.445 124.139-202.356 114.069-202.266 103.349-199.402 91.98-193.762Z" fill="#F8312F" transform="translate(2200.01 1176)"/><path d="M188.794-169.592C192.375-174.247 197.186-179.104 203.229-184.161 209.271-189.219 216.366-193.471 224.512-196.918 232.658-200.364 241.587-202.177 251.3-202.356 261.013-202.535 271.33-200.163 282.251-195.239 269.629-196.672 258.238-195.843 248.077-192.755 237.917-189.667 228.965-185.236 221.222-179.462 213.479-173.688 206.921-167.287 201.55-160.26 196.179-153.233 191.927-146.497 188.794-140.051Z" fill="#CA0B4A" transform="translate(2200.01 1176)"/><path d="M149.585-198.193C144.84-197.746 139.984-196.873 135.016-195.575 130.048-194.277 124.967-192.509 119.775-190.271 106.974-184.542 97.2168-177.313 90.5029-168.585 83.789-159.857 79.6936-150.301 78.2165-139.917 76.7395-129.533 77.5228-118.835 80.5664-107.825 83.61-96.8139 88.4888-86.1165 95.2026-75.7324 101.916-65.3483 110.107-55.8594 119.775-47.2656 124.967-42.6107 131.144-37.2172 138.306-31.0852 145.467-24.9532 153.031-18.5527 160.999-11.8835 168.966-5.21444 176.933 1.29801 184.9 7.65381 192.867 14.0096 200.297 19.7835 207.19 24.9756 204.415 27.2135 201.864 29.1829 199.536 30.8838 196.403 33.3008 192.867 34.4645 188.928 34.375 184.989 34.2855 181.498 32.9875 178.455 30.481 172.099 25.4679 165.049 19.5374 157.306 12.6892 149.563 5.84106 141.685-1.29801 133.673-8.72803 125.661-16.158 118.03-23.3419 110.779-30.2795 103.528-37.2172 97.2616-43.3268 91.98-48.6084 83.2967-57.2917 75.9115-66.9149 69.8242-77.478 63.737-88.0412 59.3058-98.8952 56.5308-110.04 53.7557-121.185 53.0395-132.062 54.3823-142.67 55.7251-153.278 59.4401-162.99 65.5273-171.808 71.6146-180.625 80.4321-187.944 91.98-193.762 102.812-199.133 113.084-201.931 122.797-202.155 132.509-202.378 141.439-201.058 149.585-198.193Z" fill="#CA0B4A" transform="translate(2200.01 1176)"/><path d="M284.936-116.15C289.233-123.58 292.053-130.943 293.396-138.239 294.739-145.534 294.649-152.024 293.127-157.709 291.606-163.393 288.651-167.489 284.265-169.995 279.968-172.502 274.978-172.994 269.293-171.472 263.609-169.95 257.947-166.772 252.307-161.938 246.667-157.104 241.699-151.017 237.402-143.677 233.195-136.247 230.397-128.884 229.01-121.588 227.622-114.292 227.69-107.802 229.211-102.118 230.733-96.4335 233.687-92.338 238.074-89.8315 242.46-87.325 247.495-86.8327 253.18-88.3545 258.864-89.8763 264.526-93.0542 270.166-97.8882 275.806-102.722 280.729-108.809 284.936-116.15Z" fill="#F37366" transform="translate(2200.01 1176)"/><text fill="#C00000" font-family="Garamond,Garamond_MSFontService,sans-serif" font-weight="400" font-size="275" transform="translate(2577.56 1176)">2025</text></g></svg>