<svg width="3300" height="876" xmlns="http://www.w3.org/2000/svg" xmlns:xlink="http://www.w3.org/1999/xlink" overflow="hidden"><defs><clipPath id="clip0"><rect x="550" y="540" width="3300" height="876"/></clipPath></defs><g clip-path="url(#clip0)" transform="translate(-550 -540)"><text fill="#FF5252" font-family="Garamond,Garamond_MSFontService,sans-serif" font-weight="400" font-size="275" transform="translate(1131.8 876)">Владимир и Юлия <tspan font-size="275" x="426.548" y="297">07</tspan></text><path d="M30.7715-64.8223C26.9082-62.8756 23.9583-60.4274 21.9219-57.4775 19.8854-54.5277 18.6426-51.2783 18.1934-47.7295 17.7441-44.1807 17.9837-40.542 18.9121-36.8135 19.8405-33.085 21.3229-29.4538 23.3594-25.9199 25.3958-22.3861 27.8665-19.1667 30.7715-16.2617 32.5384-14.4948 34.6348-12.4508 37.0605-10.1299 39.4863-7.80892 42.0394-5.4056 44.7197-2.91992 47.4001-0.434245 50.0355 1.9541 52.626 4.24512 55.2165 6.53613 57.5749 8.52018 59.7012 10.1973 60.7194 11.0358 61.8874 11.4701 63.2051 11.5 64.5228 11.5299 65.7057 11.1406 66.7539 10.332 69.0599 8.59505 71.5081 6.58105 74.0986 4.29004 76.6891 1.99902 79.2946-0.389323 81.915-2.875 84.5355-5.36068 87.0211-7.764 89.3721-10.085 91.723-12.4059 93.7819-14.4648 95.5488-16.2617 98.4538-19.1667 100.932-22.3861 102.983-25.9199 105.035-29.4538 106.517-33.085 107.431-36.8135 108.344-40.542 108.584-44.1807 108.149-47.7295 107.715-51.2783 106.48-54.5277 104.443-57.4775 102.407-60.4274 99.442-62.8756 95.5488-64.8223 91.7754-66.709 88.1966-67.6673 84.8125-67.6973 81.4284-67.7272 78.3288-67.1657 75.5137-66.0127 72.6986-64.8597 70.2428-63.4297 68.1465-61.7227 66.0501-60.0156 64.388-58.3535 63.1602-56.7363 61.9622-58.3535 60.3076-60.0156 58.1963-61.7227 56.085-63.4297 53.6217-64.8597 50.8066-66.0127 47.9915-67.1657 44.8994-67.7272 41.5303-67.6973 38.1611-67.6673 34.5749-66.709 30.7715-64.8223Z" fill="#F8312F" transform="translate(1816.16 1173)"/><path d="M63.1602-56.7363C64.3581-58.2936 65.9678-59.9183 67.9893-61.6103 70.0107-63.3024 72.3841-64.7249 75.1094-65.8779 77.8346-67.0309 80.8219-67.6374 84.0713-67.6973 87.3206-67.7572 90.7721-66.9635 94.4258-65.3164 90.2031-65.7956 86.3922-65.5185 82.9932-64.4853 79.5941-63.4521 76.5993-61.9697 74.0088-60.0381 71.4183-58.1064 69.2246-55.9652 67.4277-53.6143 65.6309-51.2633 64.2083-49.0098 63.1602-46.8535Z" fill="#CA0B4A" transform="translate(1816.16 1173)"/><path d="M50.043-66.3047C48.4557-66.1549 46.831-65.8629 45.1689-65.4287 43.5068-64.9945 41.8073-64.403 40.0703-63.6543 35.7878-61.7376 32.5234-59.3193 30.2773-56.3994 28.0312-53.4795 26.6611-50.2825 26.167-46.8086 25.6728-43.3346 25.9349-39.7559 26.9531-36.0723 27.9714-32.3887 29.6035-28.8099 31.8496-25.3359 34.0957-21.862 36.8359-18.6875 40.0703-15.8125 41.8073-14.2552 43.8737-12.4508 46.2695-10.3994 48.6654-8.34798 51.196-6.20671 53.8613-3.97559 56.5267-1.74447 59.1921 0.434245 61.8574 2.56055 64.5228 4.68685 67.0085 6.61849 69.3144 8.35547 68.3861 9.10417 67.5325 9.76302 66.7539 10.332 65.7057 11.1406 64.5228 11.5299 63.2051 11.5 61.8874 11.4701 60.7194 11.0358 59.7012 10.1973 57.5749 8.52018 55.2165 6.53613 52.626 4.24512 50.0355 1.9541 47.4001-0.434245 44.7197-2.91992 42.0394-5.4056 39.4863-7.80892 37.0605-10.1299 34.6348-12.4508 32.5384-14.4948 30.7715-16.2617 27.8665-19.1667 25.3958-22.3861 23.3594-25.9199 21.3229-29.4538 19.8405-33.085 18.9121-36.8135 17.9837-40.542 17.7441-44.1807 18.1934-47.7295 18.6426-51.2783 19.8854-54.5277 21.9219-57.4775 23.9583-60.4274 26.9082-62.8756 30.7715-64.8223 34.3952-66.6191 37.8317-67.555 41.0811-67.6299 44.3304-67.7047 47.3177-67.263 50.043-66.3047Z" fill="#CA0B4A" transform="translate(1816.16 1173)"/><path d="M95.3242-38.8574C96.7617-41.3431 97.7051-43.8063 98.1543-46.2471 98.6035-48.6878 98.5736-50.859 98.0644-52.7607 97.5553-54.6624 96.567-56.0325 95.0996-56.8711 93.6621-57.7096 91.9925-57.8743 90.0908-57.3652 88.1891-56.8561 86.2949-55.793 84.4082-54.1758 82.5215-52.5586 80.8594-50.5221 79.4219-48.0664 78.0143-45.5807 77.0784-43.1175 76.6143-40.6768 76.1501-38.236 76.1725-36.0648 76.6816-34.1631 77.1907-32.2614 78.179-30.8913 79.6465-30.0527 81.1139-29.2142 82.7985-29.0495 84.7002-29.5586 86.6019-30.0677 88.4961-31.1309 90.3828-32.748 92.2695-34.3652 93.9167-36.4017 95.3242-38.8574Z" fill="#F37366" transform="translate(1816.16 1173)"/><text fill="#FF5252" font-family="Garamond,Garamond_MSFontService,sans-serif" font-weight="400" font-size="275" transform="translate(1942.2 1173)">08</text><path d="M30.7715-64.8223C26.9082-62.8756 23.9583-60.4274 21.9219-57.4775 19.8854-54.5277 18.6426-51.2783 18.1934-47.7295 17.7441-44.1807 17.9837-40.542 18.9121-36.8135 19.8405-33.085 21.3229-29.4538 23.3594-25.9199 25.3958-22.3861 27.8665-19.1667 30.7715-16.2617 32.5384-14.4948 34.6348-12.4508 37.0605-10.1299 39.4863-7.80892 42.0394-5.4056 44.7197-2.91992 47.4001-0.434245 50.0355 1.9541 52.626 4.24512 55.2165 6.53613 57.5749 8.52018 59.7012 10.1973 60.7194 11.0358 61.8874 11.4701 63.2051 11.5 64.5228 11.5299 65.7057 11.1406 66.7539 10.332 69.0599 8.59505 71.5081 6.58105 74.0986 4.29004 76.6891 1.99902 79.2946-0.389323 81.915-2.875 84.5355-5.36068 87.0211-7.764 89.3721-10.085 91.723-12.4059 93.7819-14.4648 95.5488-16.2617 98.4538-19.1667 100.932-22.3861 102.983-25.9199 105.035-29.4538 106.517-33.085 107.431-36.8135 108.344-40.542 108.584-44.1807 108.149-47.7295 107.715-51.2783 106.48-54.5277 104.443-57.4775 102.407-60.4274 99.442-62.8756 95.5488-64.8223 91.7754-66.709 88.1966-67.6673 84.8125-67.6973 81.4284-67.7272 78.3288-67.1657 75.5137-66.0127 72.6986-64.8597 70.2428-63.4297 68.1465-61.7227 66.0501-60.0156 64.388-58.3535 63.1602-56.7363 61.9622-58.3535 60.3076-60.0156 58.1963-61.7227 56.085-63.4297 53.6217-64.8597 50.8066-66.0127 47.9915-67.1657 44.8994-67.7272 41.5303-67.6973 38.1611-67.6673 34.5749-66.709 30.7715-64.8223Z" fill="#F8312F" transform="translate(2200.01 1173)"/><path d="M63.1602-56.7363C64.3581-58.2936 65.9678-59.9183 67.9893-61.6103 70.0107-63.3024 72.3841-64.7249 75.1094-65.8779 77.8346-67.0309 80.8219-67.6374 84.0713-67.6973 87.3206-67.7572 90.7721-66.9635 94.4258-65.3164 90.2031-65.7956 86.3922-65.5185 82.9932-64.4853 79.5941-63.4521 76.5993-61.9697 74.0088-60.0381 71.4183-58.1064 69.2246-55.9652 67.4277-53.6143 65.6309-51.2633 64.2083-49.0098 63.1602-46.8535Z" fill="#CA0B4A" transform="translate(2200.01 1173)"/><path d="M50.043-66.3047C48.4557-66.1549 46.831-65.8629 45.1689-65.4287 43.5068-64.9945 41.8073-64.403 40.0703-63.6543 35.7878-61.7376 32.5234-59.3193 30.2773-56.3994 28.0312-53.4795 26.6611-50.2825 26.167-46.8086 25.6728-43.3346 25.9349-39.7559 26.9531-36.0723 27.9714-32.3887 29.6035-28.8099 31.8496-25.3359 34.0957-21.862 36.8359-18.6875 40.0703-15.8125 41.8073-14.2552 43.8737-12.4508 46.2695-10.3994 48.6654-8.34798 51.196-6.20671 53.8613-3.97559 56.5267-1.74447 59.1921 0.434245 61.8574 2.56055 64.5228 4.68685 67.0085 6.61849 69.3144 8.35547 68.3861 9.10417 67.5325 9.76302 66.7539 10.332 65.7057 11.1406 64.5228 11.5299 63.2051 11.5 61.8874 11.4701 60.7194 11.0358 59.7012 10.1973 57.5749 8.52018 55.2165 6.53613 52.626 4.24512 50.0355 1.9541 47.4001-0.434245 44.7197-2.91992 42.0394-5.4056 39.4863-7.80892 37.0605-10.1299 34.6348-12.4508 32.5384-14.4948 30.7715-16.2617 27.8665-19.1667 25.3958-22.3861 23.3594-25.9199 21.3229-29.4538 19.8405-33.085 18.9121-36.8135 17.9837-40.542 17.7441-44.1807 18.1934-47.7295 18.6426-51.2783 19.8854-54.5277 21.9219-57.4775 23.9583-60.4274 26.9082-62.8756 30.7715-64.8223 34.3952-66.6191 37.8317-67.555 41.0811-67.6299 44.3304-67.7047 47.3177-67.263 50.043-66.3047Z" fill="#CA0B4A" transform="translate(2200.01 1173)"/><path d="M95.3242-38.8574C96.7617-41.3431 97.7051-43.8063 98.1543-46.2471 98.6035-48.6878 98.5736-50.859 98.0644-52.7607 97.5553-54.6624 96.567-56.0325 95.0996-56.8711 93.6621-57.7096 91.9925-57.8743 90.0908-57.3652 88.1891-56.8561 86.2949-55.793 84.4082-54.1758 82.5215-52.5586 80.8594-50.5221 79.4219-48.0664 78.0143-45.5807 77.0784-43.1175 76.6143-40.6768 76.1501-38.236 76.1725-36.0648 76.6816-34.1631 77.1907-32.2614 78.179-30.8913 79.6465-30.0527 81.1139-29.2142 82.7985-29.0495 84.7002-29.5586 86.6019-30.0677 88.4961-31.1309 90.3828-32.748 92.2695-34.3652 93.9167-36.4017 95.3242-38.8574Z" fill="#F37366" transform="translate(2200.01 1173)"/><text fill="#FF5252" font-family="Garamond,Garamond_MSFontService,sans-serif" font-weight="400" font-size="275" transform="translate(2326.05 1173)">2025</text></g></svg>