<?xml version="1.0" encoding="UTF-8"?> <svg xmlns="http://www.w3.org/2000/svg" width="436" height="415" viewBox="0 0 436 415" fill="none"><path d="M247.695 22C238.629 37.3333 222.495 65.6667 199.295 107C212.229 106.467 220.895 105.667 225.295 104.6C225.962 104.6 226.295 104.933 226.295 105.6C226.295 106.8 225.829 107.467 224.895 107.6C217.295 108.933 208.295 109.6 197.895 109.6C193.362 118 187.495 129.467 180.295 144C178.429 148 177.029 150 176.095 150C174.495 149.6 173.695 148.733 173.695 147.4C173.695 146.333 174.029 144.867 174.695 143C175.362 141.133 175.695 136.667 175.695 129.6C175.695 122.267 175.029 115.333 173.695 108.8C161.829 107.467 151.629 104.667 143.095 100.4C111.229 134.667 77.2286 151.8 41.0953 151.8C28.4286 151.8 18.162 149.933 10.2953 146.2C3.49531 142.867 0.0953095 139.2 0.0953095 135.2C0.0953095 131.333 2.76198 128.467 8.09531 126.6C11.8286 125.267 16.162 124.6 21.0953 124.6C32.962 125.8 42.162 128.8 48.6953 133.6C49.4953 134.133 49.8953 134.6 49.8953 135C49.8953 135.4 49.6953 135.6 49.2953 135.6C49.162 135.6 48.962 135.533 48.6953 135.4C39.762 129.8 30.6286 127 21.2953 127C10.6286 127 5.29531 129.6 5.29531 134.8C5.29531 140.4 10.2953 144.533 20.2953 147.2C26.962 148.933 34.4953 149.8 42.8953 149.8C75.562 149.8 107.295 132.467 138.095 97.8C126.095 90.6 120.095 83.2 120.095 75.6C120.095 72.5333 121.295 69.8667 123.695 67.6C126.095 65.2 129.562 64 134.095 64C143.295 64 151.229 66.8667 157.895 72.6C173.629 50.3333 186.762 26.6 197.295 1.39999C197.429 0.999994 197.829 0.799997 198.495 0.799997C198.629 0.799997 199.562 0.933328 201.295 1.19999C203.162 1.46666 204.095 1.93333 204.095 2.6C200.895 10.3333 197.362 18.0667 193.495 25.8C184.162 44.4667 173.762 61.6 162.295 77.2C168.295 84.4 172.562 94.1333 175.095 106.4C178.962 106.933 185.695 107.2 195.295 107.2L238.895 25.4C240.762 21.8 242.762 20 244.895 20C246.762 20.5333 247.695 21.2 247.695 22ZM173.095 106.2C170.562 95.2667 166.429 86.3333 160.695 79.4C155.895 85.6667 150.829 91.7333 145.495 97.6C153.495 101.867 162.695 104.733 173.095 106.2ZM193.895 109.6C185.762 109.6 179.695 109.4 175.695 109C177.162 116.867 177.895 124.933 177.895 133.2C177.895 135.733 177.829 137.867 177.695 139.6C177.829 139.733 178.495 138.667 179.695 136.4L193.895 109.6ZM156.295 74.8C149.762 69.0667 142.229 66.2 133.695 66.2C127.962 66.2 125.095 69.0667 125.095 74.8C125.095 81.3333 130.295 88 140.695 94.8C147.895 86 153.095 79.3333 156.295 74.8ZM278.069 129.8C278.069 131.4 273.935 134.467 265.669 139C257.002 143.8 250.802 146.2 247.069 146.2C240.135 146.2 236.669 142.533 236.669 135.2C236.669 133.2 237.735 130.933 239.869 128.4C239.869 128.267 239.802 128.2 239.669 128.2C239.802 128.2 236.202 131 228.869 136.6C221.535 142.067 216.269 144.8 213.069 144.8C210.002 144.8 208.469 143.533 208.469 141C208.469 134.867 213.602 127.733 223.869 119.6C233.602 111.733 241.202 107.8 246.669 107.8C247.469 107.933 248.335 108.4 249.269 109.2C250.335 109.867 250.869 110.4 250.869 110.8C250.869 110.933 250.802 111.067 250.669 111.2C243.202 111.2 233.669 117 222.069 128.6C218.335 132.333 216.469 135.467 216.469 138C216.469 138.933 216.935 139.4 217.869 139.4C220.802 139.4 226.402 136 234.669 129.2C241.335 123.6 246.069 119.133 248.869 115.8C250.202 114.2 251.135 113.4 251.669 113.4C253.002 113.4 253.669 114.333 253.669 116.2C253.669 116.867 252.802 118.4 251.069 120.8C245.335 128.667 242.469 133.667 242.469 135.8C242.469 139.533 244.535 141.4 248.669 141.4C255.469 141.4 264.669 137.467 276.269 129.6C276.669 129.2 277.069 129 277.469 129C277.869 129 278.069 129.267 278.069 129.8ZM320.973 115.6C320.707 116.267 319.907 117.867 318.573 120.4C317.373 122.933 316.04 125.6 314.573 128.4C313.107 131.2 311.773 133.867 310.573 136.4C309.373 138.8 308.773 140.2 308.773 140.6C308.773 141.667 309.24 142.2 310.173 142.2C312.307 142.2 317.507 138.667 325.773 131.6C334.04 124.8 340.507 118.4 345.173 112.4C347.173 110.4 348.64 109.4 349.573 109.4C351.307 109.4 352.173 110.267 352.173 112C352.173 113.067 351.707 114.267 350.773 115.6C342.773 127.6 338.773 135.4 338.773 139C338.773 142.333 340.307 144 343.373 144C348.04 144 356.507 139.8 368.773 131.4C369.307 130.867 370.24 130.267 371.573 129.6C371.973 129.2 372.373 129 372.773 129C373.173 129 373.373 129.267 373.373 129.8C373.373 130.6 372.373 131.667 370.373 133C353.84 144.067 342.773 149.6 337.173 149.6C333.44 149.6 331.573 147.467 331.573 143.2C331.573 140.667 332.04 138.267 332.973 136C334.307 132.8 334.973 131.067 334.973 130.8C334.973 130.267 334.773 130 334.373 130C334.507 130 334.173 130.133 333.373 130.4C331.907 131.867 330.107 133.467 327.973 135.2C325.84 136.933 323.373 138.867 320.573 141C313.507 146.333 308.507 149 305.573 149C302.373 149 300.773 147.4 300.773 144.2C300.773 143.267 301.307 141.733 302.373 139.6C303.44 137.467 305.107 134.267 307.373 130C307.507 130 307.173 130.133 306.373 130.4C304.907 131.867 303.107 133.467 300.973 135.2C298.84 136.933 296.373 138.867 293.573 141C286.507 146.333 281.507 149 278.573 149C275.373 149 273.773 147.4 273.773 144.2C273.773 142.467 276.107 137.333 280.773 128.8C285.44 120.133 287.773 115.2 287.773 114C287.773 112.533 286.573 111.8 284.173 111.8C283.64 111.8 283.373 111 283.373 109.4C284.573 109 285.84 108.8 287.173 108.8C291.84 108.8 294.173 110.133 294.173 112.8C294.173 115.733 292.107 120.667 287.973 127.6C283.84 134.533 281.773 138.867 281.773 140.6C281.773 141.667 282.24 142.2 283.173 142.2C285.307 142.2 290.507 138.667 298.773 131.6C301.973 128.933 305.04 125.933 307.973 122.6C311.04 119.133 313.507 115.733 315.373 112.4C317.373 110.4 318.84 109.4 319.773 109.4C321.507 109.4 322.373 110.267 322.373 112C322.373 113.067 321.907 114.267 320.973 115.6ZM435.295 129.8C435.295 131.4 431.162 134.467 422.895 139C414.229 143.8 408.029 146.2 404.295 146.2C397.362 146.2 393.895 142.533 393.895 135.2C393.895 133.2 394.962 130.933 397.095 128.4C397.095 128.267 397.029 128.2 396.895 128.2C397.029 128.2 393.429 131 386.095 136.6C378.762 142.067 373.495 144.8 370.295 144.8C367.229 144.8 365.695 143.533 365.695 141C365.695 134.867 370.829 127.733 381.095 119.6C390.829 111.733 398.429 107.8 403.895 107.8C404.695 107.933 405.562 108.4 406.495 109.2C407.562 109.867 408.095 110.4 408.095 110.8C408.095 110.933 408.029 111.067 407.895 111.2C400.429 111.2 390.895 117 379.295 128.6C375.562 132.333 373.695 135.467 373.695 138C373.695 138.933 374.162 139.4 375.095 139.4C378.029 139.4 383.629 136 391.895 129.2C398.562 123.6 403.295 119.133 406.095 115.8C407.429 114.2 408.362 113.4 408.895 113.4C410.229 113.4 410.895 114.333 410.895 116.2C410.895 116.867 410.029 118.4 408.295 120.8C402.562 128.667 399.695 133.667 399.695 135.8C399.695 139.533 401.762 141.4 405.895 141.4C412.695 141.4 421.895 137.467 433.495 129.6C433.895 129.2 434.295 129 434.695 129C435.095 129 435.295 129.267 435.295 129.8ZM92.4625 289.8C92.4625 290.333 91.4625 291.4 89.4625 293C84.1292 296.467 78.8625 299.933 73.6625 303.4C66.0625 307.933 59.8625 310.2 55.0625 310.2C52.2625 310.2 49.7958 309.2 47.6625 307.2C45.5292 305.2 44.4625 302.933 44.4625 300.4C44.4625 291.6 48.7292 283.533 57.2625 276.2C64.8625 269.667 71.9292 266.4 78.4625 266.4C82.5958 266.4 84.6625 268.067 84.6625 271.4C84.6625 273.267 81.9292 276.933 76.4625 282.4C75.9292 282.933 75.3292 283.2 74.6625 283.2C73.5958 283.2 73.0625 282.6 73.0625 281.4C73.0625 280.867 73.2625 280.467 73.6625 280.2C74.0625 279.8 74.8625 278.333 76.0625 275.8C77.2625 273.133 77.8625 271.133 77.8625 269.8C77.8625 269.4 77.3958 269.2 76.4625 269.2C73.1292 269.2 68.2625 271.933 61.8625 277.4C54.1292 283.933 50.2625 290.667 50.2625 297.6C50.2625 302.667 52.4625 305.2 56.8625 305.2C63.6625 305.2 73.9958 300.6 87.8625 291.4C88.5292 290.867 89.4625 290.267 90.6625 289.6C91.0625 289.2 91.4625 289 91.8625 289C92.2625 289 92.4625 289.267 92.4625 289.8ZM177.631 165.8C177.631 179.267 171.165 195.933 158.231 215.8C148.231 231.267 135.831 246.467 121.031 261.4C107.965 274.733 99.9646 281.4 97.0313 281.4C97.4313 293.933 101.365 300.2 108.831 300.2C114.565 300.2 120.765 297.733 127.431 292.8C126.098 290.4 125.431 287.8 125.431 285C125.431 275.933 128.365 271.4 134.231 271.4C136.631 271.4 138.031 273.067 138.431 276.4C138.431 281.067 136.431 285.733 132.431 290.4C134.698 294.133 138.231 296 143.031 296C148.231 296 153.298 293.867 158.231 289.6C158.631 289.2 159.031 289 159.431 289C159.831 289 160.031 289.267 160.031 289.8C160.031 290.333 159.365 291.133 158.031 292.2C152.165 297.133 146.231 299.6 140.231 299.6C135.298 299.6 131.365 297.933 128.431 294.6C120.565 301.8 112.898 305.4 105.431 305.4C101.031 305.4 97.3646 303.6 94.4313 300C91.6313 296.267 90.2313 291.8 90.2313 286.6C90.2313 271.8 95.4313 253.867 105.831 232.8C115.298 213.6 126.565 196.6 139.631 181.8C152.698 166.867 163.231 159.4 171.231 159.4C175.498 159.4 177.631 161.533 177.631 165.8ZM171.831 168.8C171.831 165.733 170.631 164.2 168.231 164.2C161.965 164.2 152.965 171.733 141.231 186.8C130.165 200.933 120.231 216.867 111.431 234.6C102.098 253.267 97.4313 267.333 97.4313 276.8C97.4313 277.333 97.5646 277.6 97.8313 277.6C100.365 277.6 107.698 271.067 119.831 258C133.298 243.6 144.698 229.067 154.031 214.4C165.898 195.733 171.831 180.533 171.831 168.8ZM136.431 277.6C136.431 276.267 135.965 275.6 135.031 275.6C132.231 275.6 130.831 278.333 130.831 283.8C130.831 285.667 131.098 287.333 131.631 288.8C134.831 285.2 136.431 281.467 136.431 277.6ZM222.405 289.8C222.405 291.4 218.271 294.467 210.005 299C201.338 303.8 195.138 306.2 191.405 306.2C184.471 306.2 181.005 302.533 181.005 295.2C181.005 293.2 182.071 290.933 184.205 288.4C184.205 288.267 184.138 288.2 184.005 288.2C184.138 288.2 180.538 291 173.205 296.6C165.871 302.067 160.605 304.8 157.405 304.8C154.338 304.8 152.805 303.533 152.805 301C152.805 294.867 157.938 287.733 168.205 279.6C177.938 271.733 185.538 267.8 191.005 267.8C191.805 267.933 192.671 268.4 193.605 269.2C194.671 269.867 195.205 270.4 195.205 270.8C195.205 270.933 195.138 271.067 195.005 271.2C187.538 271.2 178.005 277 166.405 288.6C162.671 292.333 160.805 295.467 160.805 298C160.805 298.933 161.271 299.4 162.205 299.4C165.138 299.4 170.738 296 179.005 289.2C185.671 283.6 190.405 279.133 193.205 275.8C194.538 274.2 195.471 273.4 196.005 273.4C197.338 273.4 198.005 274.333 198.005 276.2C198.005 276.867 197.138 278.4 195.405 280.8C189.671 288.667 186.805 293.667 186.805 295.8C186.805 299.533 188.871 301.4 193.005 301.4C199.805 301.4 209.005 297.467 220.605 289.6C221.005 289.2 221.405 289 221.805 289C222.205 289 222.405 289.267 222.405 289.8ZM282.109 289.8C281.576 291.533 276.976 295 268.309 300.2C259.643 305.267 252.243 309.8 246.109 313.8C227.043 351.133 215.176 373.667 210.509 381.4C197.309 403.267 186.309 414.2 177.509 414.2C173.509 414.2 171.509 411.6 171.509 406.4C171.509 375.733 194.643 344.8 240.909 313.6C243.976 307.6 249.576 296.2 257.709 279.4C257.709 279.267 257.576 279.2 257.309 279.2C257.043 279.2 256.576 279.533 255.909 280.2C253.243 282.733 249.709 286 245.309 290C235.843 298.8 228.109 303.2 222.109 303.2C219.309 303.2 217.909 301.533 217.909 298.2C217.909 292.2 222.243 285.267 230.909 277.4C240.243 268.867 249.376 264.6 258.309 264.6C260.843 264.6 262.976 265.133 264.709 266.2L268.909 260.4C269.843 259.2 270.776 258.6 271.709 258.6C273.443 258.6 274.309 259.533 274.309 261.4C274.309 262.333 273.976 263.267 273.309 264.2C267.043 273.533 258.843 288.333 248.709 308.6C255.509 304.333 261.709 300.733 267.309 297.8C273.976 293.933 278.309 291.2 280.309 289.6C280.709 289.2 281.109 289 281.509 289C281.909 289 282.109 289.267 282.109 289.8ZM263.309 268.6C263.309 268.067 262.709 267.8 261.509 267.8C254.309 267.8 246.443 271.267 237.909 278.2C229.376 285 225.109 291.067 225.109 296.4C225.109 298 225.843 298.8 227.309 298.8C232.776 298.8 244.443 289.267 262.309 270.2C262.976 269.267 263.309 268.733 263.309 268.6ZM238.109 319.4C197.443 348.2 177.109 376.667 177.109 404.8C177.109 408.267 178.243 410 180.509 410C189.043 410 208.243 379.8 238.109 319.4ZM285.47 297C285.47 300.6 286.937 302.4 289.87 302.4C292.004 302.4 294.137 301.8 296.27 300.6C298.404 299.4 300.47 297.867 302.47 296C300.47 294 299.47 291.533 299.47 288.6C299.47 285.4 300.337 282.667 302.07 280.4C303.937 278 306.004 276.8 308.27 276.8C310.537 276.8 311.87 277.867 312.27 280C312.27 282 311.937 284.2 311.27 286.6C310.604 288.867 309.404 291.333 307.67 294C309.67 296 312.47 297 316.07 297C320.47 297 325.004 295.2 329.67 291.6C330.07 291.2 330.404 291 330.67 291C331.07 291 331.27 291.267 331.27 291.8C331.27 292.867 330.537 293.867 329.07 294.8C327.604 295.733 325.87 296.6 323.87 297.4C322.004 298.2 320.07 298.867 318.07 299.4C316.07 299.8 314.537 300 313.47 300C311.604 300 310.137 299.8 309.07 299.4C308.004 298.867 306.87 298.133 305.67 297.2C302.87 300.533 299.67 303.133 296.07 305C292.47 306.867 289.004 307.8 285.67 307.8C283.137 307.8 281.27 306.8 280.07 304.8C278.87 302.667 278.27 300.267 278.27 297.6C278.27 295.867 279.004 293.067 280.47 289.2C282.07 285.333 284.004 281.4 286.27 277.4C288.537 273.4 291.004 269.933 293.67 267C296.47 263.933 299.004 262.4 301.27 262.4C302.337 262.667 302.87 263 302.87 263.4C302.87 263.533 301.737 265.067 299.47 268C297.337 270.933 295.137 274.333 292.87 278.2C290.604 282.067 288.804 285.733 287.47 289.2C286.137 292.533 285.47 295.133 285.47 297ZM310.07 280.8C310.604 280.533 310.604 280.333 310.07 280.2C309.67 279.933 309.204 279.8 308.67 279.8C307.604 279.8 306.537 280.533 305.47 282C304.537 283.467 304.07 285.4 304.07 287.8C304.07 289.8 304.537 291.467 305.47 292.8C307.07 290.8 308.204 288.733 308.87 286.6C309.67 284.333 310.07 282.533 310.07 281.2V280.8ZM409.28 208.8C407.68 208.933 405.013 209 401.28 209C397.68 208.867 393.48 208.933 388.68 209.2C384.013 209.333 379.213 209.733 374.28 210.4C369.346 210.933 364.813 211.933 360.68 213.4C356.68 214.733 353.413 216.533 350.88 218.8C348.48 220.933 347.413 223.8 347.68 227.4C347.946 230.067 349.213 233.133 351.48 236.6C353.746 239.933 356.146 243.667 358.68 247.8C361.213 251.8 363.346 256.067 365.08 260.6C366.813 265 367.28 269.6 366.48 274.4C366.48 277.333 365.88 280.8 364.68 284.8C363.48 288.667 361.48 292.333 358.68 295.8C355.613 299.8 352.08 302.933 348.08 305.2C344.213 307.467 340.48 308.6 336.88 308.6C331.546 308.6 328.88 305.267 328.88 298.6C328.88 289.8 333.146 281.067 341.68 272.4C348.88 265.067 354.146 261.4 357.48 261.4C359.613 261.4 360.68 262.067 360.68 263.4C360.68 263.933 360.28 264.467 359.48 265C356.146 265.667 351.813 269.067 346.48 275.2C339.813 282.667 336.48 289.867 336.48 296.8C336.48 301.333 338.08 303.6 341.28 303.6C345.946 303.6 350.68 300.867 355.48 295.4C356.68 293.8 357.813 292.067 358.88 290.2C359.946 288.333 360.88 286.467 361.68 284.6C362.48 282.733 363.08 280.933 363.48 279.2C364.013 277.333 364.28 275.733 364.28 274.4C364.28 271.2 364.08 268.533 363.68 266.4C363.28 264.267 362.68 262.4 361.88 260.8C361.08 259.067 360.08 257.4 358.88 255.8C357.68 254.2 356.346 252.267 354.88 250C353.28 247.6 351.746 245.267 350.28 243C348.813 240.733 347.546 238.467 346.48 236.2C345.413 233.933 344.68 231.667 344.28 229.4C344.013 227.133 344.28 224.8 345.08 222.4C347.08 219.2 350.146 216.4 354.28 214C358.413 211.6 363.013 209.667 368.08 208.2C373.28 206.6 378.68 205.4 384.28 204.6C390.013 203.8 395.48 203.333 400.68 203.2C405.88 203.067 410.613 203.267 414.88 203.8C419.146 204.333 422.413 205.067 424.68 206C426.546 206.8 427.346 207.533 427.08 208.2C426.946 208.733 425.346 208.933 422.28 208.8H409.28ZM435.295 289.8C435.295 291.4 431.162 294.467 422.895 299C414.229 303.8 408.029 306.2 404.295 306.2C397.362 306.2 393.895 302.533 393.895 295.2C393.895 293.2 394.962 290.933 397.095 288.4C397.095 288.267 397.029 288.2 396.895 288.2C397.029 288.2 393.429 291 386.095 296.6C378.762 302.067 373.495 304.8 370.295 304.8C367.229 304.8 365.695 303.533 365.695 301C365.695 294.867 370.829 287.733 381.095 279.6C390.829 271.733 398.429 267.8 403.895 267.8C404.695 267.933 405.562 268.4 406.495 269.2C407.562 269.867 408.095 270.4 408.095 270.8C408.095 270.933 408.029 271.067 407.895 271.2C400.429 271.2 390.895 277 379.295 288.6C375.562 292.333 373.695 295.467 373.695 298C373.695 298.933 374.162 299.4 375.095 299.4C378.029 299.4 383.629 296 391.895 289.2C398.562 283.6 403.295 279.133 406.095 275.8C407.429 274.2 408.362 273.4 408.895 273.4C410.229 273.4 410.895 274.333 410.895 276.2C410.895 276.867 410.029 278.4 408.295 280.8C402.562 288.667 399.695 293.667 399.695 295.8C399.695 299.533 401.762 301.4 405.895 301.4C412.695 301.4 421.895 297.467 433.495 289.6C433.895 289.2 434.295 289 434.695 289C435.095 289 435.295 289.267 435.295 289.8Z" fill="white"></path></svg> 