<?xml version="1.0" encoding="UTF-8"?> <svg xmlns="http://www.w3.org/2000/svg" width="1788" height="256" viewBox="0 0 1788 256" fill="none"><path d="M121.272 15.4C121.272 26.7333 116.139 39.4667 105.872 53.6C95.6052 67.6 86.0052 74.6 77.0719 74.6C72.2719 74.6 69.8719 71.7333 69.8719 66C69.8719 61.4667 71.3385 57.0667 74.2719 52.8C76.0052 50.2667 79.4052 46.4667 84.4719 41.4C85.0052 40.8667 85.4719 40.6 85.8719 40.6C86.6719 40.6 87.0719 41.1333 87.0719 42.2C77.3385 50.0667 72.4719 57.7333 72.4719 65.2C72.4719 66.9333 73.0052 68.6 74.0719 70.2C75.2719 71.6667 76.7385 72.4 78.4719 72.4C84.2052 72.4 91.6052 66.2667 100.672 54C110.272 40.8 115.072 28.3333 115.072 16.6C115.072 8.46667 110.939 4.4 102.672 4.4C89.4719 4.4 75.1385 10.6 59.6719 23C45.4052 34.6 33.3385 48.9333 23.4719 66C13.2052 83.6 8.07188 99.4667 8.07188 113.6C8.07188 124.667 11.0052 133.8 16.8719 141C22.8719 148.6 30.7385 152.4 40.4719 152.4C57.4052 152.4 76.0052 142.267 96.2719 122C96.8052 121.733 97.1385 121.6 97.2719 121.6C97.8052 121.6 98.0719 121.933 98.0719 122.6C98.0719 123.533 97.5385 124.533 96.4719 125.6C90.8719 131.467 84.4052 136.867 77.0719 141.8C63.2052 150.867 49.8052 155.4 36.8719 155.4C23.5385 155.4 13.7385 151.067 7.47188 142.4C2.80521 135.867 0.471875 127.733 0.471875 118C0.471875 104 5.67188 87.7333 16.0719 69.2C26.4719 50.5333 39.3385 34.9333 54.6719 22.4C71.6052 8.39999 88.1385 1.39999 104.272 1.39999C115.605 1.39999 121.272 6.06666 121.272 15.4ZM150.513 141.8C150.113 142.333 149.579 143.067 148.913 144C148.246 144.8 147.579 145.6 146.913 146.4C146.379 147.333 145.846 148.067 145.313 148.6C144.779 149.267 144.379 149.6 144.113 149.6C142.379 149.6 141.513 148.667 141.513 146.8C141.513 146.133 141.979 144.8 142.913 142.8C144.513 140.533 146.113 138.333 147.713 136.2C149.313 134.067 150.846 131.867 152.313 129.6C156.979 122.933 159.313 118.2 159.313 115.4C159.313 114.2 158.913 113.6 158.113 113.6C157.579 113.6 156.779 113.867 155.713 114.4C152.246 116.933 148.113 120 143.313 123.6C138.646 127.2 133.113 131.333 126.712 136H125.312C124.379 136 123.912 135.867 123.912 135.6C123.912 135.333 124.646 134.667 126.112 133.6C130.779 129.867 135.646 126.067 140.713 122.2C145.913 118.2 151.379 114.067 157.113 109.8C158.579 108.467 160.646 107.8 163.313 107.8C165.979 107.8 167.313 109 167.313 111.4C167.313 114.067 165.379 118.333 161.513 124.2C161.246 124.733 160.913 125.267 160.513 125.8C160.113 126.2 159.779 126.667 159.513 127.2C160.579 127.2 161.846 127.2 163.313 127.2C164.779 127.2 166.446 127.133 168.313 127C171.513 126.733 174.246 126.733 176.513 127C177.046 126.067 177.579 125.133 178.113 124.2C178.646 123.267 179.246 122.267 179.913 121.2C181.379 118.933 182.779 116.867 184.113 115C185.579 113.133 187.046 111.467 188.513 110C189.446 108.8 190.913 108.2 192.913 108.2C193.979 108.467 194.513 108.8 194.513 109.2C194.513 109.2 192.179 113.067 187.513 120.8C182.846 128.533 180.513 134.133 180.513 137.6C180.513 141.733 182.313 143.8 185.913 143.8C190.446 143.8 197.046 139.867 205.713 132C206.113 131.6 206.513 131.4 206.913 131.4C207.313 131.4 207.513 131.667 207.513 132.2C207.513 133 206.179 134.333 203.513 136.2C199.246 139.933 195.379 142.8 191.913 144.8C188.446 146.667 185.179 147.6 182.113 147.6C176.113 147.6 173.113 145.067 173.113 140C173.113 136.667 173.846 133.267 175.313 129.8C173.713 129.667 171.779 129.6 169.513 129.6C167.379 129.6 164.979 129.733 162.313 130C160.446 130.133 159.246 130.2 158.713 130.2C158.179 130.2 157.779 130.2 157.513 130.2C155.646 132.867 153.979 135.4 152.513 137.8C151.179 140.2 150.513 141.533 150.513 141.8ZM255.88 130.8C255.88 131.733 253.146 133.933 247.68 137.4C234.213 145.933 224.546 150.2 218.68 150.2C210.013 150.2 205.68 145.133 205.68 135C205.68 127.533 209.28 120.067 216.48 112.6C223.813 105 230.746 101.2 237.28 101.2C239.28 101.2 240.28 102.133 240.28 104C240.28 108.533 236.346 114.933 228.48 123.2C222.213 129.733 217.08 134.2 213.08 136.6C213.48 142.467 216.28 145.4 221.48 145.4C226.413 145.4 234.68 142.067 246.28 135.4C247.213 134.867 249.813 133.267 254.08 130.6C254.48 130.2 254.88 130 255.28 130C255.68 130 255.88 130.267 255.88 130.8ZM234.08 107.8C234.08 106.2 233.613 105.4 232.68 105.4C229.346 105.4 225.28 108.733 220.48 115.4C215.68 122.067 213.213 128.067 213.08 133.4C215.613 132.6 219.613 129.133 225.08 123C231.08 116.333 234.08 111.267 234.08 107.8ZM376.555 130.8C376.555 131.6 375.555 132.667 373.555 134C364.088 140.4 358.821 143.933 357.755 144.6C351.755 148.2 346.755 150 342.755 150C340.488 150 338.555 149.2 336.955 147.6C335.488 146 334.755 144.067 334.755 141.8C334.755 135.133 339.021 125.6 347.555 113.2C348.221 112.267 348.555 111.667 348.555 111.4C348.555 111.267 348.488 111.2 348.355 111.2C347.821 111.2 346.888 111.667 345.555 112.6C338.088 118.2 329.821 124.4 320.755 131.2C316.888 134.533 311.221 139.2 303.755 145.2C302.688 146 301.221 146.733 299.355 147.4C298.421 147.4 297.955 146.733 297.955 145.4C297.955 142.733 300.155 138.467 304.555 132.6C309.088 126.6 311.355 122.4 311.355 120C311.355 117.733 310.288 116.6 308.155 116.6C304.955 116.6 298.555 120.933 288.955 129.6C282.421 135.467 276.688 141.133 271.755 146.6C269.888 148.6 268.421 149.6 267.355 149.6C265.621 149.6 264.755 148.667 264.755 146.8C264.755 146.267 265.221 144.933 266.155 142.8C269.355 138.4 272.488 134 275.555 129.6C280.221 122.933 282.555 118.2 282.555 115.4C282.555 114.2 282.155 113.6 281.355 113.6C280.955 113.6 280.155 113.867 278.955 114.4C272.155 119.467 262.488 126.667 249.955 136H248.555C247.621 136 247.155 135.867 247.155 135.6C247.155 135.2 247.888 134.533 249.355 133.6C258.688 126.267 269.021 118.333 280.355 109.8C281.955 108.467 284.021 107.8 286.555 107.8C289.221 107.8 290.555 109 290.555 111.4C290.555 111.933 290.421 112.733 290.155 113.8C287.488 118.467 284.088 124.4 279.955 131.6C279.421 132.533 279.155 133.133 279.155 133.4C279.155 133.533 279.288 133.6 279.555 133.6L280.155 133.4C285.088 129.133 290.021 124.867 294.955 120.6C302.555 114.2 308.021 111 311.355 111C315.755 111 317.955 112.4 317.955 115.2C317.955 117.6 316.621 121.267 313.955 126.2C311.421 131 310.155 133.6 310.155 134C310.155 134.4 310.288 134.6 310.555 134.6C311.088 134.6 312.021 134.133 313.355 133.2L354.955 101.8C356.288 100.733 357.688 100.2 359.155 100.2C360.088 100.2 360.755 100.4 361.155 100.8C361.555 101.067 361.755 101.6 361.755 102.4C361.755 103.333 361.488 104.133 360.955 104.8C357.221 110.133 353.421 115.533 349.555 121C345.021 127.933 342.755 133.933 342.755 139C342.755 142.2 344.488 143.733 347.955 143.6C352.088 143.467 356.755 141.8 361.955 138.6C366.221 135.933 370.488 133.267 374.755 130.6C375.155 130.2 375.555 130 375.955 130C376.355 130 376.555 130.267 376.555 130.8ZM423.458 130.8C423.458 131.733 420.724 133.933 415.258 137.4C401.791 145.933 392.124 150.2 386.258 150.2C377.591 150.2 373.258 145.133 373.258 135C373.258 127.533 376.858 120.067 384.058 112.6C391.391 105 398.324 101.2 404.858 101.2C406.858 101.2 407.858 102.133 407.858 104C407.858 108.533 403.924 114.933 396.058 123.2C389.791 129.733 384.658 134.2 380.658 136.6C381.058 142.467 383.858 145.4 389.058 145.4C393.991 145.4 402.258 142.067 413.858 135.4C414.791 134.867 417.391 133.267 421.658 130.6C422.058 130.2 422.458 130 422.858 130C423.258 130 423.458 130.267 423.458 130.8ZM401.658 107.8C401.658 106.2 401.191 105.4 400.258 105.4C396.924 105.4 392.858 108.733 388.058 115.4C383.258 122.067 380.791 128.067 380.658 133.4C383.191 132.6 387.191 129.133 392.658 123C398.658 116.333 401.658 111.267 401.658 107.8ZM481.733 130.8C481.733 132.667 476.933 136.133 467.333 141.2C457.733 146.267 446.066 148.8 432.333 148.8C424.466 148.8 420.199 148 419.533 146.4C419.533 145.467 420.266 145 421.733 145C423.733 145.4 424.999 145.6 425.533 145.6C432.333 145.6 439.599 142.133 447.333 135.2C454.666 128.667 458.333 123.067 458.333 118.4C458.333 116.4 457.066 115.4 454.533 115.4C441.999 115.4 428.333 127.267 413.533 151C412.333 152.867 405.066 167 391.733 193.4C378.266 219.933 371.133 234.133 370.333 236C369.399 238.267 368.199 239.4 366.733 239.4C366.199 239.4 365.799 239.333 365.533 239.2C364.733 238.933 364.333 238.133 364.333 236.8C364.333 232 394.333 176 454.333 68.8C455.399 66.9333 456.399 66 457.333 66C457.466 66 457.733 66.1333 458.133 66.4C458.533 66.6667 458.733 67.2 458.733 68C458.733 69.4667 458.333 70.6 457.533 71.4C457.399 71.8 451.933 81.6667 441.133 101C430.866 119.667 425.733 129.6 425.733 130.8C425.733 130.933 425.799 131.067 425.933 131.2C426.066 130.933 426.533 130.4 427.333 129.6C430.533 125.733 434.933 121.8 440.533 117.8C447.999 112.733 454.533 110.2 460.133 110.2C464.266 110.2 466.333 111.8 466.333 115C466.333 124.733 458.533 134.267 442.933 143.6C454.799 143.6 467.133 139.267 479.933 130.6C480.333 130.2 480.733 130 481.133 130C481.533 130 481.733 130.267 481.733 130.8ZM562.122 130.8C561.322 133.067 556.455 136.467 547.522 141C538.589 145.533 531.989 147.8 527.722 147.8C525.455 147.8 524.322 147 524.322 145.4C524.322 143.267 526.522 139 530.922 132.6C535.455 126.2 537.722 122 537.722 120C537.722 117.733 536.655 116.6 534.522 116.6C531.322 116.6 524.922 120.933 515.322 129.6C508.789 135.467 503.055 141.133 498.122 146.6C496.255 148.6 494.789 149.6 493.722 149.6C491.989 149.6 491.122 148.667 491.122 146.8C491.122 146.267 491.589 144.933 492.522 142.8C495.722 138.4 498.855 134 501.922 129.6C506.589 122.933 508.922 118.2 508.922 115.4C508.922 114.2 508.522 113.6 507.722 113.6C507.322 113.6 506.522 113.867 505.322 114.4C498.522 119.467 488.855 126.667 476.322 136H474.922C473.989 136 473.522 135.867 473.522 135.6C473.522 135.2 474.255 134.533 475.722 133.6C485.055 126.267 495.389 118.333 506.722 109.8C508.322 108.467 510.389 107.8 512.922 107.8C515.589 107.8 516.922 109 516.922 111.4C516.922 114.2 514.989 118.467 511.122 124.2C507.389 129.8 505.522 132.867 505.522 133.4C505.522 133.533 505.655 133.6 505.922 133.6C505.789 133.6 510.255 129.867 519.322 122.4C528.389 114.8 534.522 111 537.722 111C542.655 111 545.122 112.667 545.122 116C545.122 118.933 542.989 123.733 538.722 130.4C534.455 137.067 532.322 140.867 532.322 141.8C532.322 142.867 532.989 143.4 534.322 143.4C536.855 143.4 541.722 141.467 548.922 137.6C553.855 134.8 557.655 132.467 560.322 130.6C560.722 130.2 561.122 130 561.522 130C561.922 130 562.122 130.267 562.122 130.8ZM609.005 130.8C609.005 131.733 606.271 133.933 600.805 137.4C587.338 145.933 577.671 150.2 571.805 150.2C563.138 150.2 558.805 145.133 558.805 135C558.805 127.533 562.405 120.067 569.605 112.6C576.938 105 583.871 101.2 590.405 101.2C592.405 101.2 593.405 102.133 593.405 104C593.405 108.533 589.471 114.933 581.605 123.2C575.338 129.733 570.205 134.2 566.205 136.6C566.605 142.467 569.405 145.4 574.605 145.4C579.538 145.4 587.805 142.067 599.405 135.4C600.338 134.867 602.938 133.267 607.205 130.6C607.605 130.2 608.005 130 608.405 130C608.805 130 609.005 130.267 609.005 130.8ZM587.205 107.8C587.205 106.2 586.738 105.4 585.805 105.4C582.471 105.4 578.405 108.733 573.605 115.4C568.805 122.067 566.338 128.067 566.205 133.4C568.738 132.6 572.738 129.133 578.205 123C584.205 116.333 587.205 111.267 587.205 107.8ZM626.88 141.8C626.48 142.333 625.946 143.067 625.28 144C624.613 144.8 623.946 145.6 623.28 146.4C622.746 147.333 622.213 148.067 621.68 148.6C621.146 149.267 620.746 149.6 620.48 149.6C618.746 149.6 617.88 148.667 617.88 146.8C617.88 146.133 618.346 144.8 619.28 142.8C620.88 140.533 622.48 138.333 624.08 136.2C625.68 134.067 627.213 131.867 628.68 129.6C633.346 122.933 635.68 118.2 635.68 115.4C635.68 114.2 635.28 113.6 634.48 113.6C633.946 113.6 633.146 113.867 632.08 114.4C628.613 116.933 624.48 120 619.68 123.6C615.013 127.2 609.48 131.333 603.08 136H601.68C600.746 136 600.28 135.867 600.28 135.6C600.28 135.333 601.013 134.667 602.48 133.6C607.146 129.867 612.013 126.067 617.08 122.2C622.28 118.2 627.746 114.067 633.48 109.8C634.946 108.467 637.013 107.8 639.68 107.8C642.346 107.8 643.68 109 643.68 111.4C643.68 114.067 641.746 118.333 637.88 124.2C637.613 124.733 637.28 125.267 636.88 125.8C636.48 126.2 636.146 126.667 635.88 127.2C636.946 127.2 638.213 127.2 639.68 127.2C641.146 127.2 642.813 127.133 644.68 127C647.88 126.733 650.613 126.733 652.88 127C653.413 126.067 653.946 125.133 654.48 124.2C655.013 123.267 655.613 122.267 656.28 121.2C657.746 118.933 659.146 116.867 660.48 115C661.946 113.133 663.413 111.467 664.88 110C665.813 108.8 667.28 108.2 669.28 108.2C670.346 108.467 670.88 108.8 670.88 109.2C670.88 109.2 668.546 113.067 663.88 120.8C659.213 128.533 656.88 134.133 656.88 137.6C656.88 141.733 658.68 143.8 662.28 143.8C666.813 143.8 673.413 139.867 682.08 132C682.48 131.6 682.88 131.4 683.28 131.4C683.68 131.4 683.88 131.667 683.88 132.2C683.88 133 682.546 134.333 679.88 136.2C675.613 139.933 671.746 142.8 668.28 144.8C664.813 146.667 661.546 147.6 658.48 147.6C652.48 147.6 649.48 145.067 649.48 140C649.48 136.667 650.213 133.267 651.68 129.8C650.08 129.667 648.146 129.6 645.88 129.6C643.746 129.6 641.346 129.733 638.68 130C636.813 130.133 635.613 130.2 635.08 130.2C634.546 130.2 634.146 130.2 633.88 130.2C632.013 132.867 630.346 135.4 628.88 137.8C627.546 140.2 626.88 141.533 626.88 141.8ZM750.047 130.8C750.047 131.6 749.047 132.667 747.047 134C730.647 145.067 719.58 150.6 713.847 150.6C710.114 150.6 708.247 148.467 708.247 144.2C708.247 141.8 708.714 139.4 709.647 137C710.98 133.667 711.647 131.933 711.647 131.8C711.647 131.267 711.447 131 711.047 131C710.914 131 710.58 131.133 710.047 131.4C707.114 134.333 702.847 137.867 697.247 142C690.047 147.333 685.047 150 682.247 150C679.047 150 677.447 148.4 677.447 145.2C677.447 143.333 679.78 138.2 684.447 129.8C689.114 121.267 691.447 116.333 691.447 115C691.447 113.533 690.247 112.8 687.847 112.8C687.314 112.8 687.047 112 687.047 110.4C688.247 110 689.514 109.8 690.847 109.8C695.514 109.8 697.847 111.133 697.847 113.8C697.847 116.733 695.78 121.667 691.647 128.6C687.514 135.533 685.447 139.867 685.447 141.6C685.447 142.667 685.914 143.2 686.847 143.2C688.98 143.2 694.18 139.667 702.447 132.6C710.847 125.533 717.314 119.133 721.847 113.4C723.847 111.4 725.314 110.4 726.247 110.4C727.98 110.4 728.847 111.267 728.847 113C728.847 113.933 728.38 115.133 727.447 116.6C719.447 128.6 715.447 136.4 715.447 140C715.447 143.333 716.98 145 720.047 145C724.714 145 733.18 140.8 745.447 132.4C746.114 131.867 747.047 131.267 748.247 130.6C748.647 130.2 749.047 130 749.447 130C749.847 130 750.047 130.267 750.047 130.8ZM796.895 130.8C796.895 131.733 794.162 133.933 788.695 137.4C775.229 145.933 765.562 150.2 759.695 150.2C751.029 150.2 746.695 145.133 746.695 135C746.695 127.533 750.295 120.067 757.495 112.6C764.829 105 771.762 101.2 778.295 101.2C780.295 101.2 781.295 102.133 781.295 104C781.295 108.533 777.362 114.933 769.495 123.2C763.229 129.733 758.095 134.2 754.095 136.6C754.495 142.467 757.295 145.4 762.495 145.4C767.429 145.4 775.695 142.067 787.295 135.4C788.229 134.867 790.829 133.267 795.095 130.6C795.495 130.2 795.895 130 796.295 130C796.695 130 796.895 130.267 796.895 130.8ZM775.095 107.8C775.095 106.2 774.629 105.4 773.695 105.4C770.362 105.4 766.295 108.733 761.495 115.4C756.695 122.067 754.229 128.067 754.095 133.4C756.629 132.6 760.629 129.133 766.095 123C772.095 116.333 775.095 111.267 775.095 107.8ZM848.97 126.2C850.57 124.333 852.57 121.933 854.97 119C857.504 116.067 859.837 113.267 861.97 110.6C863.17 109.8 864.37 109.6 865.57 110C866.77 110.4 867.104 110.933 866.57 111.6C862.57 117.6 859.637 122.933 857.77 127.6C855.904 132.267 854.97 135.533 854.97 137.4C854.97 140.733 856.504 142.4 859.57 142.4C864.237 142.4 872.704 138.2 884.97 129.8C885.237 129.533 885.837 129.067 886.77 128.4C887.837 127.733 888.57 127.4 888.97 127.4C889.37 127.4 889.57 127.667 889.57 128.2C889.57 129 888.57 130.067 886.57 131.4C870.037 142.467 858.97 148 853.37 148C849.637 148 847.77 145.867 847.77 141.6C847.77 140.267 847.904 138.867 848.17 137.4C848.57 135.8 848.97 134.4 849.37 133.2C849.904 132 850.304 131 850.57 130.2C850.97 129.4 851.17 129.067 851.17 129.2C851.17 128.667 850.97 128.4 850.57 128.4C849.637 129.467 848.17 131 846.17 133C844.17 135 842.037 137 839.77 139C837.504 141 835.237 142.733 832.97 144.2C830.704 145.533 828.904 146.133 827.57 146C825.97 145.867 824.97 145.333 824.57 144.4C824.17 143.333 824.17 142.067 824.57 140.6C824.97 139.133 825.637 137.533 826.57 135.8C827.504 134.067 828.504 132.4 829.57 130.8C829.837 130.4 830.304 129.667 830.97 128.6C831.637 127.4 832.237 126.267 832.77 125.2C833.437 124.133 833.904 123.267 834.17 122.6C834.437 121.933 834.304 121.8 833.77 122.2C833.637 121.933 833.104 122.333 832.17 123.4C831.37 124.333 830.237 125.6 828.77 127.2C827.304 128.8 825.57 130.533 823.57 132.4C821.704 134.133 819.57 135.733 817.17 137.2C815.437 138.267 813.637 139.4 811.77 140.6C809.904 141.667 808.037 142.667 806.17 143.6C804.437 144.4 802.637 145.067 800.77 145.6C799.037 146.133 797.304 146.333 795.57 146.2C793.704 146.067 792.037 145.667 790.57 145C788.97 144.2 788.17 142.533 788.17 140C788.17 138.533 788.57 137.267 789.37 136.2C790.037 135.133 790.77 134.6 791.57 134.6C792.237 134.6 792.77 134.933 793.17 135.6C793.57 136.267 794.037 137.067 794.57 138C795.104 138.8 795.704 139.533 796.37 140.2C797.037 140.867 797.97 141.2 799.17 141.2H800.37C801.437 141.2 804.037 140.267 808.17 138.4C815.504 134.933 821.637 130.667 826.57 125.6C831.637 120.533 836.17 115.4 840.17 110.2C842.17 108.2 843.637 107.2 844.57 107.2C844.97 107.2 845.437 107.4 845.97 107.8C846.637 108.067 847.037 108.6 847.17 109.4C847.437 110.2 847.237 111.333 846.57 112.8C846.037 114.133 844.904 115.867 843.17 118C842.104 119.067 840.837 120.667 839.37 122.8C838.037 124.933 836.637 127.2 835.17 129.6C833.837 132 832.57 134.267 831.37 136.4C830.304 138.533 829.57 140.067 829.17 141C829.304 142.067 830.17 142.133 831.77 141.2C833.504 140.267 835.437 138.933 837.57 137.2C839.837 135.467 842.037 133.6 844.17 131.6C846.304 129.467 847.904 127.667 848.97 126.2ZM1028.75 132C1028.75 132.4 1028.02 133.133 1026.55 134.2C1025.22 135.267 1023.55 136.4 1021.55 137.6C1019.55 138.8 1017.48 140 1015.35 141.2C1013.22 142.4 1011.42 143.467 1009.95 144.4C1006.08 146.8 1002.55 148.533 999.352 149.6C996.285 150.667 993.618 151.2 991.352 151.2C988.552 151.2 986.085 150.2 983.952 148.2C981.818 146.2 980.752 143.933 980.752 141.4C980.752 137.4 981.818 133.4 983.952 129.4C986.218 125.267 989.018 121.6 992.352 118.4C995.818 115.2 999.485 112.6 1003.35 110.6C1007.35 108.467 1011.15 107.4 1014.75 107.4C1016.88 107.4 1018.48 107.8 1019.55 108.6C1020.62 109.4 1021.42 110.6 1021.95 112.2C1022.22 112.867 1022.02 114.2 1021.35 116.2C1020.82 118.2 1018.82 119.8 1015.35 121C1014.82 121.267 1014.42 121.133 1014.15 120.6C1014.02 120.067 1014.15 119.6 1014.55 119.2C1016.15 117.733 1017.02 116.4 1017.15 115.2C1017.28 114 1017.15 113.067 1016.75 112.4C1016.35 111.6 1015.82 111.067 1015.15 110.8C1014.48 110.533 1014.15 110.533 1014.15 110.8C1014.15 110.4 1013.68 110.2 1012.75 110.2C1010.75 110.2 1008.22 111.133 1005.15 113C1002.22 114.867 999.352 117.2 996.552 120C993.752 122.8 991.352 125.867 989.352 129.2C987.485 132.533 986.552 135.667 986.552 138.6C986.552 143.667 988.752 146.2 993.152 146.2C996.618 146.2 1000.88 145.267 1005.95 143.4C1011.15 141.533 1017.22 138.267 1024.15 133.6C1024.42 133.333 1025.02 132.867 1025.95 132.2C1027.02 131.533 1027.75 131.2 1028.15 131.2C1028.55 131.2 1028.75 131.467 1028.75 132ZM961.152 121.8C961.418 118.467 961.018 116.133 959.952 114.8C959.018 113.333 957.418 112.6 955.152 112.6C951.685 112.6 947.485 114.267 942.552 117.6C937.752 120.933 931.885 124.933 924.952 129.6C924.818 129.733 924.418 130 923.752 130.4C923.218 130.8 922.552 131.267 921.752 131.8C921.085 132.2 920.418 132.6 919.752 133C919.085 133.267 918.685 133.4 918.552 133.4C918.152 133.4 917.952 133.067 917.952 132.4C917.952 132 918.885 131.067 920.752 129.6C922.752 128 925.085 126.267 927.752 124.4C930.418 122.533 933.085 120.733 935.752 119C938.552 117.133 940.685 115.733 942.152 114.8C945.885 112.533 949.085 110.933 951.752 110C954.552 109.067 957.152 108.6 959.552 108.6C962.352 108.6 964.418 109.467 965.752 111.2C967.218 112.933 967.752 115.8 967.352 119.8C966.952 123.8 965.418 127.667 962.752 131.4C960.085 135.133 956.885 138.467 953.152 141.4C949.418 144.2 945.485 146.4 941.352 148C937.218 149.6 933.352 150.2 929.752 149.8C925.618 149.4 923.752 147.533 924.152 144.2C924.418 142.2 927.552 138.8 933.552 134C934.085 133.6 934.685 133.4 935.352 133.4C936.418 133.667 936.885 134.333 936.752 135.4C936.618 136.067 936.352 136.533 935.952 136.8C935.552 137.067 934.618 138.333 933.152 140.6C931.685 143.267 930.885 145.2 930.752 146.4C930.752 146.8 931.218 147.067 932.152 147.2C934.152 147.467 936.685 146.867 939.752 145.4C942.952 143.8 946.085 141.733 949.152 139.2C952.218 136.667 954.885 133.867 957.152 130.8C959.552 127.733 960.885 124.733 961.152 121.8ZM973.552 137.8C975.152 135.533 977.285 133.6 979.952 132C982.618 130.267 984.952 129 986.952 128.2C987.218 129.267 987.018 130.067 986.352 130.6C985.685 131 985.085 131.333 984.552 131.6C982.418 132.8 979.952 134.533 977.152 136.8C974.352 139.067 972.085 141.8 970.352 145C969.285 145.533 968.618 145.933 968.352 146.2C968.085 146.6 967.818 146.8 967.552 146.8C966.885 146.667 966.285 146.267 965.752 145.6C965.218 144.933 965.085 144.067 965.352 143C965.618 142.867 966.152 142.133 966.952 140.8C967.752 139.333 968.485 137.8 969.152 136.2C969.685 134.733 970.418 132.933 971.352 130.8C972.285 128.533 973.152 126.267 973.952 124C974.218 123.067 974.485 122.133 974.752 121.2C975.152 120.267 975.552 119.267 975.952 118.2C975.552 118.2 975.218 118.533 974.952 119.2C971.618 124 967.952 127.2 963.952 128.8C963.552 126.667 963.752 125.4 964.552 125C966.685 123.8 969.152 122.067 971.952 119.8C974.752 117.533 977.018 114.8 978.752 111.6C979.818 111.067 980.485 110.667 980.752 110.4C981.018 110 981.285 109.8 981.552 109.8C982.218 109.933 982.818 110.333 983.352 111C983.885 111.667 984.018 112.533 983.752 113.6C983.485 113.733 982.952 114.533 982.152 116C981.352 117.333 980.618 118.8 979.952 120.4C979.285 122.267 978.418 124.733 977.352 127.8C976.285 130.733 975.018 134.067 973.552 137.8ZM1084.11 130.8C1083.58 132.533 1078.98 136 1070.31 141.2C1061.64 146.267 1054.24 150.8 1048.11 154.8C1029.04 192.133 1017.18 214.667 1012.51 222.4C999.309 244.267 988.309 255.2 979.509 255.2C975.509 255.2 973.509 252.6 973.509 247.4C973.509 216.733 996.643 185.8 1042.91 154.6C1045.98 148.6 1051.58 137.2 1059.71 120.4C1059.71 120.267 1059.58 120.2 1059.31 120.2C1059.04 120.2 1058.58 120.533 1057.91 121.2C1055.24 123.733 1051.71 127 1047.31 131C1037.84 139.8 1030.11 144.2 1024.11 144.2C1021.31 144.2 1019.91 142.533 1019.91 139.2C1019.91 133.2 1024.24 126.267 1032.91 118.4C1042.24 109.867 1051.38 105.6 1060.31 105.6C1062.84 105.6 1064.98 106.133 1066.71 107.2L1070.91 101.4C1071.84 100.2 1072.78 99.6 1073.71 99.6C1075.44 99.6 1076.31 100.533 1076.31 102.4C1076.31 103.333 1075.98 104.267 1075.31 105.2C1069.04 114.533 1060.84 129.333 1050.71 149.6C1057.51 145.333 1063.71 141.733 1069.31 138.8C1075.98 134.933 1080.31 132.2 1082.31 130.6C1082.71 130.2 1083.11 130 1083.51 130C1083.91 130 1084.11 130.267 1084.11 130.8ZM1065.31 109.6C1065.31 109.067 1064.71 108.8 1063.51 108.8C1056.31 108.8 1048.44 112.267 1039.91 119.2C1031.38 126 1027.11 132.067 1027.11 137.4C1027.11 139 1027.84 139.8 1029.31 139.8C1034.78 139.8 1046.44 130.267 1064.31 111.2C1064.98 110.267 1065.31 109.733 1065.31 109.6ZM1040.11 160.4C999.443 189.2 979.109 217.667 979.109 245.8C979.109 249.267 980.243 251 982.509 251C991.043 251 1010.24 220.8 1040.11 160.4ZM1131.27 130.8C1131.27 131.733 1128.54 133.933 1123.07 137.4C1109.6 145.933 1099.94 150.2 1094.07 150.2C1085.4 150.2 1081.07 145.133 1081.07 135C1081.07 127.533 1084.67 120.067 1091.87 112.6C1099.2 105 1106.14 101.2 1112.67 101.2C1114.67 101.2 1115.67 102.133 1115.67 104C1115.67 108.533 1111.74 114.933 1103.87 123.2C1097.6 129.733 1092.47 134.2 1088.47 136.6C1088.87 142.467 1091.67 145.4 1096.87 145.4C1101.8 145.4 1110.07 142.067 1121.67 135.4C1122.6 134.867 1125.2 133.267 1129.47 130.6C1129.87 130.2 1130.27 130 1130.67 130C1131.07 130 1131.27 130.267 1131.27 130.8ZM1109.47 107.8C1109.47 106.2 1109 105.4 1108.07 105.4C1104.74 105.4 1100.67 108.733 1095.87 115.4C1091.07 122.067 1088.6 128.067 1088.47 133.4C1091 132.6 1095 129.133 1100.47 123C1106.47 116.333 1109.47 111.267 1109.47 107.8ZM1183.35 126.2C1184.95 124.333 1186.95 121.933 1189.35 119C1191.88 116.067 1194.21 113.267 1196.35 110.6C1197.55 109.8 1198.75 109.6 1199.95 110C1201.15 110.4 1201.48 110.933 1200.95 111.6C1196.95 117.6 1194.01 122.933 1192.15 127.6C1190.28 132.267 1189.35 135.533 1189.35 137.4C1189.35 140.733 1190.88 142.4 1193.95 142.4C1198.61 142.4 1207.08 138.2 1219.35 129.8C1219.61 129.533 1220.21 129.067 1221.15 128.4C1222.21 127.733 1222.95 127.4 1223.35 127.4C1223.75 127.4 1223.95 127.667 1223.95 128.2C1223.95 129 1222.95 130.067 1220.95 131.4C1204.41 142.467 1193.35 148 1187.75 148C1184.01 148 1182.15 145.867 1182.15 141.6C1182.15 140.267 1182.28 138.867 1182.55 137.4C1182.95 135.8 1183.35 134.4 1183.75 133.2C1184.28 132 1184.68 131 1184.95 130.2C1185.35 129.4 1185.55 129.067 1185.55 129.2C1185.55 128.667 1185.35 128.4 1184.95 128.4C1184.01 129.467 1182.55 131 1180.55 133C1178.55 135 1176.41 137 1174.15 139C1171.88 141 1169.61 142.733 1167.35 144.2C1165.08 145.533 1163.28 146.133 1161.95 146C1160.35 145.867 1159.35 145.333 1158.95 144.4C1158.55 143.333 1158.55 142.067 1158.95 140.6C1159.35 139.133 1160.01 137.533 1160.95 135.8C1161.88 134.067 1162.88 132.4 1163.95 130.8C1164.21 130.4 1164.68 129.667 1165.35 128.6C1166.01 127.4 1166.61 126.267 1167.15 125.2C1167.81 124.133 1168.28 123.267 1168.55 122.6C1168.81 121.933 1168.68 121.8 1168.15 122.2C1168.01 121.933 1167.48 122.333 1166.55 123.4C1165.75 124.333 1164.61 125.6 1163.15 127.2C1161.68 128.8 1159.95 130.533 1157.95 132.4C1156.08 134.133 1153.95 135.733 1151.55 137.2C1149.81 138.267 1148.01 139.4 1146.15 140.6C1144.28 141.667 1142.41 142.667 1140.55 143.6C1138.81 144.4 1137.01 145.067 1135.15 145.6C1133.41 146.133 1131.68 146.333 1129.95 146.2C1128.08 146.067 1126.41 145.667 1124.95 145C1123.35 144.2 1122.55 142.533 1122.55 140C1122.55 138.533 1122.95 137.267 1123.75 136.2C1124.41 135.133 1125.15 134.6 1125.95 134.6C1126.61 134.6 1127.15 134.933 1127.55 135.6C1127.95 136.267 1128.41 137.067 1128.95 138C1129.48 138.8 1130.08 139.533 1130.75 140.2C1131.41 140.867 1132.35 141.2 1133.55 141.2H1134.75C1135.81 141.2 1138.41 140.267 1142.55 138.4C1149.88 134.933 1156.01 130.667 1160.95 125.6C1166.01 120.533 1170.55 115.4 1174.55 110.2C1176.55 108.2 1178.01 107.2 1178.95 107.2C1179.35 107.2 1179.81 107.4 1180.35 107.8C1181.01 108.067 1181.41 108.6 1181.55 109.4C1181.81 110.2 1181.61 111.333 1180.95 112.8C1180.41 114.133 1179.28 115.867 1177.55 118C1176.48 119.067 1175.21 120.667 1173.75 122.8C1172.41 124.933 1171.01 127.2 1169.55 129.6C1168.21 132 1166.95 134.267 1165.75 136.4C1164.68 138.533 1163.95 140.067 1163.55 141C1163.68 142.067 1164.55 142.133 1166.15 141.2C1167.88 140.267 1169.81 138.933 1171.95 137.2C1174.21 135.467 1176.41 133.6 1178.55 131.6C1180.68 129.467 1182.28 127.667 1183.35 126.2ZM1342.33 6.79999C1342.33 20.2667 1335.86 36.9333 1322.93 56.8C1312.93 72.2667 1300.53 87.4667 1285.73 102.4C1272.66 115.733 1264.66 122.4 1261.73 122.4C1262.13 134.933 1266.06 141.2 1273.53 141.2C1279.26 141.2 1285.46 138.733 1292.13 133.8C1290.79 131.4 1290.13 128.8 1290.13 126C1290.13 116.933 1293.06 112.4 1298.93 112.4C1301.33 112.4 1302.73 114.067 1303.13 117.4C1303.13 122.067 1301.13 126.733 1297.13 131.4C1299.39 135.133 1302.93 137 1307.73 137C1312.93 137 1317.99 134.867 1322.93 130.6C1323.33 130.2 1323.73 130 1324.13 130C1324.53 130 1324.73 130.267 1324.73 130.8C1324.73 131.333 1324.06 132.133 1322.73 133.2C1316.86 138.133 1310.93 140.6 1304.93 140.6C1299.99 140.6 1296.06 138.933 1293.13 135.6C1285.26 142.8 1277.59 146.4 1270.13 146.4C1265.73 146.4 1262.06 144.6 1259.13 141C1256.33 137.267 1254.93 132.8 1254.93 127.6C1254.93 112.8 1260.13 94.8667 1270.53 73.8C1279.99 54.6 1291.26 37.6 1304.33 22.8C1317.39 7.86666 1327.93 0.399991 1335.93 0.399991C1340.19 0.399991 1342.33 2.53332 1342.33 6.79999ZM1336.53 9.79999C1336.53 6.73332 1335.33 5.19999 1332.93 5.19999C1326.66 5.19999 1317.66 12.7333 1305.93 27.8C1294.86 41.9333 1284.93 57.8667 1276.13 75.6C1266.79 94.2667 1262.13 108.333 1262.13 117.8C1262.13 118.333 1262.26 118.6 1262.53 118.6C1265.06 118.6 1272.39 112.067 1284.53 99C1297.99 84.6 1309.39 70.0667 1318.73 55.4C1330.59 36.7333 1336.53 21.5333 1336.53 9.79999ZM1301.13 118.6C1301.13 117.267 1300.66 116.6 1299.73 116.6C1296.93 116.6 1295.53 119.333 1295.53 124.8C1295.53 126.667 1295.79 128.333 1296.33 129.8C1299.53 126.2 1301.13 122.467 1301.13 118.6ZM1367.9 130.8C1367.9 131.333 1366.9 132.4 1364.9 134C1359.57 137.467 1354.3 140.933 1349.1 144.4C1341.5 148.933 1335.3 151.2 1330.5 151.2C1327.7 151.2 1325.23 150.2 1323.1 148.2C1320.97 146.2 1319.9 143.933 1319.9 141.4C1319.9 132.6 1324.17 124.533 1332.7 117.2C1340.3 110.667 1347.37 107.4 1353.9 107.4C1358.03 107.4 1360.1 109.067 1360.1 112.4C1360.1 114.267 1357.37 117.933 1351.9 123.4C1351.37 123.933 1350.77 124.2 1350.1 124.2C1349.03 124.2 1348.5 123.6 1348.5 122.4C1348.5 121.867 1348.7 121.467 1349.1 121.2C1349.5 120.8 1350.3 119.333 1351.5 116.8C1352.7 114.133 1353.3 112.133 1353.3 110.8C1353.3 110.4 1352.83 110.2 1351.9 110.2C1348.57 110.2 1343.7 112.933 1337.3 118.4C1329.57 124.933 1325.7 131.667 1325.7 138.6C1325.7 143.667 1327.9 146.2 1332.3 146.2C1339.1 146.2 1349.43 141.6 1363.3 132.4C1363.97 131.867 1364.9 131.267 1366.1 130.6C1366.5 130.2 1366.9 130 1367.3 130C1367.7 130 1367.9 130.267 1367.9 130.8ZM1488.47 130.8C1488.47 131.6 1487.47 132.667 1485.47 134C1476 140.4 1470.74 143.933 1469.67 144.6C1463.67 148.2 1458.67 150 1454.67 150C1452.4 150 1450.47 149.2 1448.87 147.6C1447.4 146 1446.67 144.067 1446.67 141.8C1446.67 135.133 1450.94 125.6 1459.47 113.2C1460.14 112.267 1460.47 111.667 1460.47 111.4C1460.47 111.267 1460.4 111.2 1460.27 111.2C1459.74 111.2 1458.8 111.667 1457.47 112.6C1450 118.2 1441.74 124.4 1432.67 131.2C1428.8 134.533 1423.14 139.2 1415.67 145.2C1414.6 146 1413.14 146.733 1411.27 147.4C1410.34 147.4 1409.87 146.733 1409.87 145.4C1409.87 142.733 1412.07 138.467 1416.47 132.6C1421 126.6 1423.27 122.4 1423.27 120C1423.27 117.733 1422.2 116.6 1420.07 116.6C1416.87 116.6 1410.47 120.933 1400.87 129.6C1394.34 135.467 1388.6 141.133 1383.67 146.6C1381.8 148.6 1380.34 149.6 1379.27 149.6C1377.54 149.6 1376.67 148.667 1376.67 146.8C1376.67 146.267 1377.14 144.933 1378.07 142.8C1381.27 138.4 1384.4 134 1387.47 129.6C1392.14 122.933 1394.47 118.2 1394.47 115.4C1394.47 114.2 1394.07 113.6 1393.27 113.6C1392.87 113.6 1392.07 113.867 1390.87 114.4C1384.07 119.467 1374.4 126.667 1361.87 136H1360.47C1359.54 136 1359.07 135.867 1359.07 135.6C1359.07 135.2 1359.8 134.533 1361.27 133.6C1370.6 126.267 1380.94 118.333 1392.27 109.8C1393.87 108.467 1395.94 107.8 1398.47 107.8C1401.14 107.8 1402.47 109 1402.47 111.4C1402.47 111.933 1402.34 112.733 1402.07 113.8C1399.4 118.467 1396 124.4 1391.87 131.6C1391.34 132.533 1391.07 133.133 1391.07 133.4C1391.07 133.533 1391.2 133.6 1391.47 133.6L1392.07 133.4C1397 129.133 1401.94 124.867 1406.87 120.6C1414.47 114.2 1419.94 111 1423.27 111C1427.67 111 1429.87 112.4 1429.87 115.2C1429.87 117.6 1428.54 121.267 1425.87 126.2C1423.34 131 1422.07 133.6 1422.07 134C1422.07 134.4 1422.2 134.6 1422.47 134.6C1423 134.6 1423.94 134.133 1425.27 133.2L1466.87 101.8C1468.2 100.733 1469.6 100.2 1471.07 100.2C1472 100.2 1472.67 100.4 1473.07 100.8C1473.47 101.067 1473.67 101.6 1473.67 102.4C1473.67 103.333 1473.4 104.133 1472.87 104.8C1469.14 110.133 1465.34 115.533 1461.47 121C1456.94 127.933 1454.67 133.933 1454.67 139C1454.67 142.2 1456.4 143.733 1459.87 143.6C1464 143.467 1468.67 141.8 1473.87 138.6C1478.14 135.933 1482.4 133.267 1486.67 130.6C1487.07 130.2 1487.47 130 1487.87 130C1488.27 130 1488.47 130.267 1488.47 130.8ZM1546.77 130.8C1546.77 132.667 1541.97 136.133 1532.37 141.2C1522.77 146.267 1511.11 148.8 1497.37 148.8C1489.51 148.8 1485.24 148 1484.57 146.4C1484.57 145.467 1485.31 145 1486.77 145C1488.77 145.4 1490.04 145.6 1490.57 145.6C1497.37 145.6 1504.64 142.133 1512.37 135.2C1519.71 128.667 1523.37 123.067 1523.37 118.4C1523.37 116.4 1522.11 115.4 1519.57 115.4C1507.04 115.4 1493.37 127.267 1478.57 151C1477.37 152.867 1470.11 167 1456.77 193.4C1443.31 219.933 1436.17 234.133 1435.37 236C1434.44 238.267 1433.24 239.4 1431.77 239.4C1431.24 239.4 1430.84 239.333 1430.57 239.2C1429.77 238.933 1429.37 238.133 1429.37 236.8C1429.37 232 1459.37 176 1519.37 68.8C1520.44 66.9333 1521.44 66 1522.37 66C1522.51 66 1522.77 66.1333 1523.17 66.4C1523.57 66.6667 1523.77 67.2 1523.77 68C1523.77 69.4667 1523.37 70.6 1522.57 71.4C1522.44 71.8 1516.97 81.6667 1506.17 101C1495.91 119.667 1490.77 129.6 1490.77 130.8C1490.77 130.933 1490.84 131.067 1490.97 131.2C1491.11 130.933 1491.57 130.4 1492.37 129.6C1495.57 125.733 1499.97 121.8 1505.57 117.8C1513.04 112.733 1519.57 110.2 1525.17 110.2C1529.31 110.2 1531.37 111.8 1531.37 115C1531.37 124.733 1523.57 134.267 1507.97 143.6C1519.84 143.6 1532.17 139.267 1544.97 130.6C1545.37 130.2 1545.77 130 1546.17 130C1546.57 130 1546.77 130.267 1546.77 130.8ZM1594.16 130.8C1594.16 131.733 1591.43 133.933 1585.96 137.4C1572.49 145.933 1562.83 150.2 1556.96 150.2C1548.29 150.2 1543.96 145.133 1543.96 135C1543.96 127.533 1547.56 120.067 1554.76 112.6C1562.09 105 1569.03 101.2 1575.56 101.2C1577.56 101.2 1578.56 102.133 1578.56 104C1578.56 108.533 1574.63 114.933 1566.76 123.2C1560.49 129.733 1555.36 134.2 1551.36 136.6C1551.76 142.467 1554.56 145.4 1559.76 145.4C1564.69 145.4 1572.96 142.067 1584.56 135.4C1585.49 134.867 1588.09 133.267 1592.36 130.6C1592.76 130.2 1593.16 130 1593.56 130C1593.96 130 1594.16 130.267 1594.16 130.8ZM1572.36 107.8C1572.36 106.2 1571.89 105.4 1570.96 105.4C1567.63 105.4 1563.56 108.733 1558.76 115.4C1553.96 122.067 1551.49 128.067 1551.36 133.4C1553.89 132.6 1557.89 129.133 1563.36 123C1569.36 116.333 1572.36 111.267 1572.36 107.8ZM1654.24 130.8C1654.24 133.2 1648.17 137.867 1636.04 144.8C1630.7 147.867 1625.37 149.4 1620.04 149.4C1613.77 149.4 1610.64 146.733 1610.64 141.4C1610.64 138.067 1612.97 133.8 1617.64 128.6C1621.64 124.2 1623.84 122 1624.24 122C1621.84 122 1619.97 120.6 1618.64 117.8C1617.3 115 1616.3 113.6 1615.64 113.6C1615.1 113.6 1614.37 114.067 1613.44 115C1611.57 117.8 1607.97 121.333 1602.64 125.6C1599.84 127.867 1595.9 130.733 1590.84 134.2C1590.44 134.6 1590.04 134.8 1589.64 134.8C1589.37 134.8 1589.24 134.067 1589.24 132.6C1589.9 132.2 1592.3 130.467 1596.44 127.4C1605.77 120.467 1613.3 112.667 1619.04 104C1620.1 102.267 1621.5 101.4 1623.24 101.4C1624.04 101.4 1624.44 101.8 1624.44 102.6C1624.44 103.133 1624.17 104.333 1623.64 106.2C1623.1 107.933 1622.84 109.2 1622.84 110C1622.84 112.4 1624.1 114.533 1626.64 116.4C1629.3 118.267 1630.64 119.533 1630.64 120.2C1630.64 121.4 1628.57 123.867 1624.44 127.6C1620.44 131.2 1618.44 134.6 1618.44 137.8C1618.44 142.467 1620.57 144.8 1624.84 144.8C1628.84 144.8 1634.1 142.8 1640.64 138.8C1644.5 136.133 1648.44 133.4 1652.44 130.6C1652.84 130.2 1653.24 130 1653.64 130C1654.04 130 1654.24 130.267 1654.24 130.8ZM1719.19 130.8C1719.19 131.6 1718.19 132.667 1716.19 134C1699.79 145.067 1688.72 150.6 1682.99 150.6C1679.25 150.6 1677.39 148.467 1677.39 144.2C1677.39 141.8 1677.85 139.4 1678.79 137C1680.12 133.667 1680.79 131.933 1680.79 131.8C1680.79 131.267 1680.59 131 1680.19 131C1680.05 131 1679.72 131.133 1679.19 131.4C1676.25 134.333 1671.99 137.867 1666.39 142C1659.19 147.333 1654.19 150 1651.39 150C1648.19 150 1646.59 148.4 1646.59 145.2C1646.59 143.333 1648.92 138.2 1653.59 129.8C1658.25 121.267 1660.59 116.333 1660.59 115C1660.59 113.533 1659.39 112.8 1656.99 112.8C1656.45 112.8 1656.19 112 1656.19 110.4C1657.39 110 1658.65 109.8 1659.99 109.8C1664.65 109.8 1666.99 111.133 1666.99 113.8C1666.99 116.733 1664.92 121.667 1660.79 128.6C1656.65 135.533 1654.59 139.867 1654.59 141.6C1654.59 142.667 1655.05 143.2 1655.99 143.2C1658.12 143.2 1663.32 139.667 1671.59 132.6C1679.99 125.533 1686.45 119.133 1690.99 113.4C1692.99 111.4 1694.45 110.4 1695.39 110.4C1697.12 110.4 1697.99 111.267 1697.99 113C1697.99 113.933 1697.52 115.133 1696.59 116.6C1688.59 128.6 1684.59 136.4 1684.59 140C1684.59 143.333 1686.12 145 1689.19 145C1693.85 145 1702.32 140.8 1714.59 132.4C1715.25 131.867 1716.19 131.267 1717.39 130.6C1717.79 130.2 1718.19 130 1718.59 130C1718.99 130 1719.19 130.267 1719.19 130.8ZM1787.84 23.8C1787.84 24.4667 1787.5 25.3333 1786.84 26.4C1780.04 37.7333 1772.7 54.2667 1764.84 76C1756.3 99.7333 1749.64 116.2 1744.84 125.4C1744.17 126.6 1743.64 127.2 1743.24 127.2C1742.57 127.2 1742.24 126.133 1742.24 124C1745.04 111.6 1750.24 95.4667 1757.84 75.6C1769.7 44.9333 1776.04 28.4 1776.84 26C1776.97 24.5333 1777.77 23.3333 1779.24 22.4C1780.84 21.4667 1782.44 21 1784.04 21C1786.57 21 1787.84 21.9333 1787.84 23.8ZM1745.44 143C1745.44 144.467 1744.64 145.867 1743.04 147.2C1741.44 148.533 1740.04 149.2 1738.84 149.2C1736.3 149.2 1734.9 147.867 1734.64 145.2C1734.64 143.333 1735.37 141.867 1736.84 140.8C1738.3 139.733 1739.7 139.2 1741.04 139.2C1743.97 139.2 1745.44 140.467 1745.44 143Z" fill="black"></path></svg> 